<?xml version="1.0" encoding="UTF-8"?>
<svg xmlns="http://www.w3.org/2000/svg" xmlns:xlink="http://www.w3.org/1999/xlink" width="240.000015" height="240.000015" viewBox="0 0 240.000015 240.000015">
<path fill-rule="nonzero" fill="rgb(0%, 67.450982%, 100%)" fill-opacity="1" d="M 67.734375 33.867188 C 67.734375 52.570312 52.570312 67.734375 33.867188 67.734375 C 15.164062 67.734375 0 52.570312 0 33.867188 C 0 15.164062 15.164062 0 33.867188 0 C 52.570312 0 67.734375 15.164062 67.734375 33.867188 Z M 67.734375 33.867188 "/>
<path fill-rule="nonzero" fill="rgb(100%, 100%, 100%)" fill-opacity="1" d="M 30.4375 60.777344 C 25.691406 60.171875 21.15625 58.277344 17.195312 55.261719 C 15.902344 54.277344 13.480469 51.835938 12.421875 50.457031 C 9.460938 46.59375 7.617188 42.207031 7.011719 37.570312 C 6.75 35.585938 6.75 31.9375 7.011719 30.121094 C 8.320312 21.054688 14.027344 13.277344 22.222656 9.394531 C 26.035156 7.585938 29.523438 6.824219 33.953125 6.824219 C 41.117188 6.824219 47.480469 9.390625 52.632812 14.363281 C 55.117188 16.757812 56.78125 19.03125 58.207031 21.96875 C 60.136719 25.945312 60.917969 29.402344 60.917969 33.964844 C 60.917969 39.972656 59.183594 45.210938 55.582031 50.082031 C 54.511719 51.53125 52.417969 53.730469 51.03125 54.867188 C 47.222656 57.988281 42.371094 60.097656 37.558594 60.730469 C 35.894531 60.949219 31.964844 60.976562 30.4375 60.777344 Z M 40.476562 55.914062 C 43.375 55 45.738281 53.773438 48.019531 51.992188 C 49.230469 51.046875 51.328125 48.933594 52.207031 47.765625 C 54.589844 44.605469 56.210938 40.644531 56.6875 36.820312 C 56.917969 34.980469 56.785156 31.082031 56.433594 29.390625 C 55.503906 24.910156 53.5 21.125 50.347656 17.886719 C 48.382812 15.867188 46.589844 14.539062 44.289062 13.382812 C 40.792969 11.628906 37.796875 10.921875 33.863281 10.917969 C 29.699219 10.914062 26.046875 11.867188 22.433594 13.90625 C 19.144531 15.761719 15.746094 19.164062 13.882812 22.46875 C 12.511719 24.902344 11.503906 27.789062 11.113281 30.429688 C 10.855469 32.15625 10.851562 35.59375 11.105469 37.25 C 11.609375 40.5625 12.867188 43.839844 14.6875 46.589844 C 15.683594 48.089844 15.652344 48.074219 16.53125 47.570312 C 18.101562 46.671875 18.511719 46.238281 19.367188 44.558594 C 20.367188 42.601562 21.4375 40.886719 22.402344 39.695312 C 23.519531 38.324219 23.671875 38.078125 24.234375 36.78125 C 24.515625 36.128906 25.019531 35.171875 25.355469 34.652344 L 25.964844 33.710938 L 25.175781 32.933594 C 24.125 31.902344 23.253906 30.730469 23.089844 30.136719 C 22.921875 29.527344 23.121094 29.191406 23.90625 28.734375 C 24.707031 28.273438 25.277344 28.140625 27.40625 27.921875 C 28.445312 27.816406 29.570312 27.621094 29.925781 27.484375 C 30.277344 27.351562 31.332031 26.777344 32.269531 26.210938 C 34.972656 24.570312 35.199219 24.488281 36.820312 24.523438 C 38.191406 24.550781 38.191406 24.550781 39.003906 24.058594 C 40.707031 23.03125 43.148438 21.175781 46.363281 18.472656 C 46.976562 17.953125 47.570312 17.546875 47.679688 17.566406 C 48.136719 17.65625 48.96875 19.703125 49.097656 21.042969 C 49.175781 21.855469 49.015625 22.660156 48.535156 23.917969 C 48.402344 24.257812 48.34375 24.585938 48.402344 24.644531 C 48.539062 24.78125 49.011719 24.191406 49.011719 23.882812 C 49.011719 23.488281 49.273438 23.441406 49.628906 23.773438 C 49.886719 24.015625 50.109375 24.085938 50.628906 24.085938 C 51.195312 24.085938 51.335938 24.140625 51.554688 24.433594 C 51.933594 24.933594 52.019531 26.300781 51.734375 27.167969 C 51.453125 28.007812 50.609375 28.980469 49.839844 29.339844 C 49.15625 29.664062 47.765625 31.019531 47.113281 32 C 46.867188 32.378906 46.398438 33.160156 46.078125 33.742188 C 45.757812 34.324219 45.21875 35.207031 44.878906 35.699219 C 44.214844 36.667969 43.644531 38.019531 43.097656 39.9375 C 42.773438 41.0625 42.746094 41.355469 42.734375 43.863281 C 42.71875 46.894531 42.5625 47.640625 41.742188 48.574219 C 40.808594 49.632812 39.878906 51.964844 39.800781 53.433594 C 39.753906 54.363281 39.609375 55.265625 39.40625 55.9375 C 39.316406 56.230469 39.484375 56.226562 40.476562 55.914062 Z M 40.476562 55.914062 "/>
<path fill-rule="nonzero" fill="rgb(0%, 67.450982%, 100%)" fill-opacity="1" d="M 34.957031 27.757812 L 36.175781 26.191406 L 38.144531 25.914062 L 36.921875 27.480469 Z M 34.957031 27.757812 "/>
</svg>
