<?xml version="1.0" encoding="UTF-8"?>
<svg xmlns="http://www.w3.org/2000/svg" xmlns:xlink="http://www.w3.org/1999/xlink" width="160" height="160" viewBox="0 0 160 160">
<path fill-rule="nonzero" fill="rgb(100%, 100%, 100%)" fill-opacity="1" d="M 0 0 L 128 0 L 128 61.378906 C 127.300781 51.519531 124.921875 41.621094 119.898438 33.019531 C 111.578125 18.839844 98.078125 7.371094 82.039062 3.101562 C 68.851562 -0.359375 54.539062 0.0898438 41.730469 4.878906 C 27.511719 10.308594 15.820312 21.328125 8.519531 34.558594 C 1.300781 48.101562 -0.300781 64.300781 3.121094 79.171875 C 5.71875 90.511719 11.941406 100.859375 20.191406 108.988281 C 20.789062 108.621094 21.390625 108.238281 21.980469 107.851562 C 34.699219 98.679688 45.320312 86.800781 53.78125 73.648438 C 56.378906 69.460938 58.71875 65.101562 60.789062 60.628906 C 61.5 59.089844 62.140625 57.53125 62.769531 55.96875 C 66.101562 48.109375 67.300781 39.519531 71.03125 31.808594 C 73.589844 26.5 76.761719 20.929688 82.28125 18.238281 C 87.351562 15.691406 94.449219 13.789062 99.019531 18.28125 C 102.390625 23.039062 97.320312 27.929688 94.121094 31.160156 C 98.871094 32.429688 102.941406 36.210938 104.171875 41.011719 C 106.089844 47.261719 106.660156 53.980469 105.570312 60.441406 C 105.421875 61.710938 105.230469 62.988281 104.980469 64.25 C 104.828125 64.828125 104.550781 66 104.410156 66.578125 C 100.011719 81.78125 85.648438 91.238281 71.339844 95.910156 C 61.320312 99.371094 50.851562 101.269531 40.351562 102.488281 C 35.808594 105.628906 31.519531 109.160156 27 112.351562 C 26.578125 112.648438 25.730469 113.269531 25.308594 113.570312 C 36.609375 122.929688 51.371094 127.878906 66.019531 127.191406 C 86.238281 127.550781 105.410156 116.191406 116.828125 99.839844 C 123.710938 90.410156 127.050781 78.898438 128 67.371094 L 128 128 L 0 128 Z M 0 0 "/>
<path fill-rule="nonzero" fill="rgb(2.352941%, 2.352941%, 49.019608%)" fill-opacity="1" d="M 41.730469 4.878906 C 54.539062 0.0898438 68.851562 -0.359375 82.039062 3.101562 C 98.078125 7.371094 111.578125 18.839844 119.898438 33.019531 C 124.921875 41.621094 127.300781 51.519531 128 61.378906 L 128 67.371094 C 127.050781 78.898438 123.710938 90.410156 116.828125 99.839844 C 105.410156 116.191406 86.238281 127.550781 66.019531 127.191406 C 51.371094 127.878906 36.609375 122.929688 25.308594 113.570312 C 25.730469 113.269531 26.578125 112.648438 27 112.351562 C 29.230469 113.980469 31.449219 115.628906 33.820312 117.050781 C 41.601562 121.710938 50.480469 124.648438 59.558594 125.148438 C 66.019531 125.300781 72.578125 125.410156 78.898438 123.800781 C 95.199219 120.101562 109.160156 108.800781 117.691406 94.628906 C 121.820312 87.828125 124.371094 80.109375 125.289062 72.230469 C 125.601562 69.511719 125.820312 66.769531 125.878906 64.03125 C 125.679688 60.839844 125.429688 57.640625 125.121094 54.460938 C 118.320312 55.359375 111.78125 57.570312 105.570312 60.441406 C 106.660156 53.980469 106.089844 47.261719 104.171875 41.011719 C 102.941406 36.210938 98.871094 32.429688 94.121094 31.160156 C 97.320312 27.929688 102.390625 23.039062 99.019531 18.28125 C 100.050781 17.558594 101.089844 16.828125 102.121094 16.109375 C 96.890625 11.71875 90.871094 8.148438 84.320312 6.148438 C 68.320312 1.089844 50.089844 1.988281 35.28125 10.199219 C 24.78125 15.871094 16.480469 25.03125 10.558594 35.28125 C 6.78125 41.820312 5.160156 49.289062 4.109375 56.691406 C 3.730469 59.011719 3.589844 61.351562 3.570312 63.699219 C 3.601562 66.121094 3.71875 68.539062 3.941406 70.949219 C 5.109375 84.949219 11.898438 98.160156 21.980469 107.851562 C 21.390625 108.238281 20.789062 108.621094 20.191406 108.988281 C 11.941406 100.859375 5.71875 90.511719 3.121094 79.171875 C -0.300781 64.300781 1.300781 48.101562 8.519531 34.558594 C 15.820312 21.328125 27.511719 10.308594 41.730469 4.878906 Z M 41.730469 4.878906 "/>
<path fill-rule="nonzero" fill="rgb(15.294118%, 15.294118%, 57.647061%)" fill-opacity="1" d="M 35.28125 10.199219 C 50.089844 1.988281 68.320312 1.089844 84.320312 6.148438 C 73.339844 11.570312 61.730469 15.460938 50.628906 20.578125 C 45.210938 22.910156 39.460938 24.429688 34.210938 27.160156 C 29.671875 29.53125 24.71875 30.941406 20.078125 33.078125 C 17.269531 34.28125 14.519531 35.761719 11.519531 36.421875 C 11.28125 36.140625 10.800781 35.570312 10.558594 35.28125 C 16.480469 25.03125 24.78125 15.871094 35.28125 10.199219 Z M 35.28125 10.199219 "/>
<path fill-rule="nonzero" fill="rgb(10.588235%, 10.588235%, 54.509807%)" fill-opacity="1" d="M 84.320312 6.148438 C 90.871094 8.148438 96.890625 11.71875 102.121094 16.109375 C 101.089844 16.828125 100.050781 17.558594 99.019531 18.28125 C 94.449219 13.789062 87.351562 15.691406 82.28125 18.238281 C 76.761719 20.929688 73.589844 26.5 71.03125 31.808594 C 69.558594 31.890625 68.039062 31.921875 66.691406 32.589844 C 54.140625 38.261719 41.210938 43.070312 28.539062 48.441406 C 24.839844 50.199219 20.898438 51.339844 17.019531 52.601562 C 18.078125 52.988281 19.160156 53.359375 20.238281 53.710938 C 18.109375 54.011719 15.988281 54.410156 13.859375 54.789062 C 10.570312 55.210938 7.320312 55.859375 4.109375 56.691406 C 5.160156 49.289062 6.78125 41.820312 10.558594 35.28125 C 10.800781 35.570312 11.28125 36.140625 11.519531 36.421875 C 14.519531 35.761719 17.269531 34.28125 20.078125 33.078125 C 24.71875 30.941406 29.671875 29.53125 34.210938 27.160156 C 39.460938 24.429688 45.210938 22.910156 50.628906 20.578125 C 61.730469 15.460938 73.339844 11.570312 84.320312 6.148438 Z M 84.320312 6.148438 "/>
<path fill-rule="nonzero" fill="rgb(13.725491%, 53.333336%, 100%)" fill-opacity="1" d="M 76.640625 25.578125 C 80.351562 20.46875 86.640625 17.269531 92.980469 17.601562 C 94.921875 17.601562 96.921875 18.460938 98.050781 20.089844 C 99.128906 24.269531 95.21875 27.441406 92.75 30.261719 C 92.929688 30.921875 93.300781 32.238281 93.488281 32.898438 C 92.339844 32.859375 91.199219 32.699219 90.070312 32.5 C 89.71875 29.609375 91.820312 27.710938 93.488281 25.691406 C 94.78125 24.199219 95.75 22.46875 96.128906 20.519531 L 96.011719 20.449219 C 93.148438 18.261719 89.191406 19.421875 86.089844 20.460938 C 80.03125 22.539062 76.460938 28.421875 74.03125 34 C 70.609375 41.789062 69.421875 50.28125 66.339844 58.179688 C 64.421875 60.578125 63.578125 63.589844 62.210938 66.300781 C 58.75 73.488281 54.800781 80.53125 49.691406 86.699219 C 47.269531 89.878906 44.339844 92.648438 42.039062 95.929688 C 46.28125 94.089844 50.03125 91.339844 54.019531 89.039062 C 61.660156 84.558594 69.050781 79.429688 74.800781 72.609375 L 75.140625 73.578125 C 74.078125 75.710938 72.601562 77.691406 72.25 80.101562 C 73.488281 80.71875 74.71875 81.328125 75.96875 81.941406 C 74.78125 82.828125 73.578125 83.710938 72.378906 84.578125 C 72.609375 82.230469 72.320312 79.910156 71.191406 77.820312 C 67.628906 81.878906 62.878906 84.519531 58.378906 87.378906 C 56.988281 88.261719 56.890625 90.148438 56.210938 91.5 C 55.011719 91.589844 53.820312 91.46875 52.628906 91.398438 C 51.621094 92.429688 50.601562 93.449219 49.550781 94.441406 C 46.160156 94.371094 43.949219 97.359375 41.128906 98.78125 C 40.320312 99.398438 39.648438 100.179688 38.96875 100.941406 C 27.980469 109.738281 16.199219 119.519531 1.730469 121.21875 L 2.578125 120.429688 C 23.949219 112.101562 41.238281 95.640625 53.820312 76.78125 C 59.898438 67.621094 64.738281 57.578125 67.609375 46.949219 C 69.648438 39.488281 72.089844 31.929688 76.640625 25.578125 Z M 76.640625 25.578125 "/>
<path fill-rule="nonzero" fill="rgb(100%, 100%, 100%)" fill-opacity="1" d="M 86.089844 20.460938 C 89.191406 19.421875 93.148438 18.261719 96.011719 20.449219 C 92.421875 20.96875 88.621094 20.628906 85.300781 22.339844 C 80.570312 24.621094 77.5 29.28125 75.558594 34.011719 C 73.601562 38.898438 70.988281 43.679688 70.269531 48.96875 C 69.121094 52.730469 67.28125 56.25 66.398438 60.089844 C 66.378906 59.621094 66.359375 58.660156 66.339844 58.179688 C 69.421875 50.28125 70.609375 41.789062 74.03125 34 C 76.460938 28.421875 80.03125 22.539062 86.089844 20.460938 Z M 86.089844 20.460938 "/>
<path fill-rule="nonzero" fill="rgb(67.450982%, 83.529413%, 100%)" fill-opacity="1" d="M 96.011719 20.449219 L 96.128906 20.519531 C 95.75 22.46875 94.78125 24.199219 93.488281 25.691406 C 86.839844 26.839844 82.148438 32.578125 75.558594 34.011719 C 77.5 29.28125 80.570312 24.621094 85.300781 22.339844 C 88.621094 20.628906 92.421875 20.96875 96.011719 20.449219 Z M 96.011719 20.449219 "/>
<path fill-rule="nonzero" fill="rgb(50.196081%, 74.509805%, 100%)" fill-opacity="1" d="M 75.558594 34.011719 C 82.148438 32.578125 86.839844 26.839844 93.488281 25.691406 C 91.820312 27.710938 89.71875 29.609375 90.070312 32.5 C 88.421875 32.300781 86.769531 32.378906 85.121094 32.460938 C 84.851562 35.820312 85.011719 39.21875 84.441406 42.550781 C 79.890625 45.019531 75.640625 48.628906 70.269531 48.96875 C 70.988281 43.679688 73.601562 38.898438 75.558594 34.011719 Z M 75.558594 34.011719 "/>
<path fill-rule="nonzero" fill="rgb(5.490196%, 5.490196%, 50.980395%)" fill-opacity="1" d="M 66.691406 32.589844 C 68.039062 31.921875 69.558594 31.890625 71.03125 31.808594 C 67.300781 39.519531 66.101562 48.109375 62.769531 55.96875 C 59.878906 56.441406 57.148438 57.511719 54.410156 58.511719 C 43.480469 54.589844 31.839844 52.859375 20.238281 53.710938 C 19.160156 53.359375 18.078125 52.988281 17.019531 52.601562 C 20.898438 51.339844 24.839844 50.199219 28.539062 48.441406 C 41.210938 43.070312 54.140625 38.261719 66.691406 32.589844 Z M 66.691406 32.589844 "/>
<path fill-rule="nonzero" fill="rgb(30.19608%, 63.137257%, 100%)" fill-opacity="1" d="M 85.121094 32.460938 C 86.769531 32.378906 88.421875 32.300781 90.070312 32.5 C 91.199219 32.699219 92.339844 32.859375 93.488281 32.898438 C 98.570312 33.441406 102.019531 38.320312 103 43.011719 C 105.898438 54.71875 104.539062 68.199219 96.71875 77.789062 C 88.820312 87.550781 76.828125 92.769531 65.019531 96.089844 C 56.480469 98.371094 47.78125 100.101562 38.96875 100.941406 C 39.648438 100.179688 40.320312 99.398438 41.128906 98.78125 C 41.5 98.980469 42.25 99.359375 42.621094 99.550781 C 51.039062 98.398438 59.339844 96.488281 67.539062 94.261719 C 67.929688 94.140625 68.699219 93.898438 69.089844 93.78125 C 70.609375 93.289062 72.121094 92.761719 73.609375 92.191406 C 74.589844 91.78125 75.578125 91.359375 76.539062 90.910156 C 77.851562 90.300781 79.140625 89.679688 80.429688 89.039062 C 81.351562 88.570312 82.261719 88.070312 83.171875 87.570312 C 85 86.550781 86.828125 85.5 88.46875 84.179688 C 89.160156 83.621094 89.851562 83.039062 90.53125 82.449219 C 92.921875 80.269531 95.410156 78.089844 97.101562 75.289062 L 97.378906 74.851562 C 99.519531 71.460938 101.558594 67.871094 102.21875 63.859375 C 102.25 63.640625 102.320312 63.191406 102.351562 62.96875 C 103.410156 56.570312 103.769531 49.839844 101.988281 43.53125 C 101.929688 43.308594 101.820312 42.878906 101.761719 42.660156 C 101.160156 39.050781 98.238281 36.480469 95.359375 34.558594 C 92.199219 34.238281 88.960938 34.570312 85.78125 34.671875 C 88.5 35.761719 91.429688 34.949219 94.230469 35.421875 C 94.308594 35.859375 94.46875 36.738281 94.539062 37.179688 C 92.128906 36.921875 89.671875 36.269531 87.261719 36.851562 C 87.121094 37.421875 86.839844 38.570312 86.699219 39.148438 C 85.988281 43.738281 86.339844 48.460938 85.121094 52.980469 C 84.359375 56.308594 82.769531 59.46875 82.621094 62.929688 C 82.558594 65.859375 83.351562 68.699219 83.878906 71.558594 C 85.308594 71.53125 86.730469 71.480469 88.160156 71.421875 C 86.859375 73.019531 85.628906 74.671875 84.21875 76.171875 C 82.949219 73.550781 81.960938 70.328125 79.121094 68.988281 C 78.609375 71.25 78.5 73.570312 78.691406 75.878906 C 79.808594 76.609375 80.921875 77.339844 82.050781 78.058594 C 80.71875 79.179688 79.398438 80.308594 78 81.351562 C 77.320312 78.671875 76.398438 76.050781 75.140625 73.578125 L 74.800781 72.609375 C 77.140625 69.371094 79.261719 65.96875 80.929688 62.339844 C 74.109375 66.660156 67.261719 71.050781 59.960938 74.5 C 61.589844 69.460938 65.210938 65.300781 66.398438 60.089844 C 67.28125 56.25 69.121094 52.730469 70.269531 48.96875 C 75.640625 48.628906 79.890625 45.019531 84.441406 42.550781 C 85.011719 39.21875 84.851562 35.820312 85.121094 32.460938 Z M 85.121094 32.460938 "/>
<path fill-rule="nonzero" fill="rgb(78.431374%, 87.843138%, 97.647059%)" fill-opacity="1" d="M 85.78125 34.671875 C 88.960938 34.570312 92.199219 34.238281 95.359375 34.558594 C 98.238281 36.480469 101.160156 39.050781 101.761719 42.660156 C 99.71875 42.609375 97.109375 43.160156 95.730469 41.21875 C 95.070312 39.960938 94.828125 38.550781 94.539062 37.179688 C 94.46875 36.738281 94.308594 35.859375 94.230469 35.421875 C 91.429688 34.949219 88.5 35.761719 85.78125 34.671875 Z M 85.78125 34.671875 "/>
<path fill-rule="nonzero" fill="rgb(53.333336%, 74.509805%, 97.647059%)" fill-opacity="1" d="M 87.261719 36.851562 C 89.671875 36.269531 92.128906 36.921875 94.539062 37.179688 C 94.828125 38.550781 95.070312 39.960938 95.730469 41.21875 C 97.109375 43.160156 99.71875 42.609375 101.761719 42.660156 C 101.820312 42.878906 101.929688 43.308594 101.988281 43.53125 C 99.871094 43.449219 97.75 43.410156 95.628906 43.390625 C 94.390625 48.070312 98.738281 50.789062 102.160156 52.808594 C 99.941406 52.328125 97.730469 51.800781 95.511719 51.359375 C 95.441406 52.988281 95.410156 54.609375 95.421875 56.230469 C 97.308594 58.878906 99.828125 60.960938 102.351562 62.96875 C 102.320312 63.191406 102.25 63.640625 102.21875 63.859375 C 99.640625 62.148438 97.058594 59.851562 93.828125 59.699219 C 92.109375 65.089844 96.179688 69.820312 97.378906 74.851562 L 97.101562 75.289062 C 95.089844 72.921875 93.011719 70.609375 90.78125 68.429688 C 90.109375 69.160156 89.460938 69.898438 88.808594 70.648438 L 88.160156 71.421875 C 86.730469 71.480469 85.308594 71.53125 83.878906 71.558594 C 83.351562 68.699219 82.558594 65.859375 82.621094 62.929688 C 85.769531 63.890625 88.300781 66 90.78125 68.058594 C 91.039062 66.96875 91.300781 65.878906 91.539062 64.789062 C 87.339844 65.011719 83.5 60.308594 85.820312 56.421875 C 88.941406 57.03125 91.890625 58.230469 94.949219 59.078125 C 94.230469 56.039062 90.621094 56.179688 88.53125 54.539062 C 86.789062 53.71875 87.328125 51.511719 86.96875 49.980469 C 90.078125 50 93.128906 50.679688 96.21875 50.988281 C 94.511719 47.640625 89.949219 48.871094 87.570312 46.351562 C 87.339844 45.359375 87.171875 44.351562 87.058594 43.328125 C 89.839844 43.101562 92.628906 43.101562 95.410156 43 C 95.039062 40.71875 92.570312 41.601562 90.960938 41.230469 C 89.300781 41.191406 88 40.03125 86.699219 39.148438 C 86.839844 38.570312 87.121094 37.421875 87.261719 36.851562 Z M 87.261719 36.851562 "/>
<path fill-rule="nonzero" fill="rgb(31.37255%, 62.7451%, 97.254902%)" fill-opacity="1" d="M 85.121094 52.980469 C 86.339844 48.460938 85.988281 43.738281 86.699219 39.148438 C 88 40.03125 89.300781 41.191406 90.960938 41.230469 C 92.570312 41.601562 95.039062 40.71875 95.410156 43 C 92.628906 43.101562 89.839844 43.101562 87.058594 43.328125 C 87.171875 44.351562 87.339844 45.359375 87.570312 46.351562 C 89.949219 48.871094 94.511719 47.640625 96.21875 50.988281 C 93.128906 50.679688 90.078125 50 86.96875 49.980469 C 87.328125 51.511719 86.789062 53.71875 88.53125 54.539062 C 90.621094 56.179688 94.230469 56.039062 94.949219 59.078125 C 91.890625 58.230469 88.941406 57.03125 85.820312 56.421875 C 83.5 60.308594 87.339844 65.011719 91.539062 64.789062 C 91.300781 65.878906 91.039062 66.96875 90.78125 68.058594 C 88.300781 66 85.769531 63.890625 82.621094 62.929688 C 82.769531 59.46875 84.359375 56.308594 85.121094 52.980469 Z M 85.121094 52.980469 "/>
<path fill-rule="nonzero" fill="rgb(77.254903%, 87.058824%, 97.647059%)" fill-opacity="1" d="M 102.160156 52.808594 C 98.738281 50.789062 94.390625 48.070312 95.628906 43.390625 C 97.75 43.410156 99.871094 43.449219 101.988281 43.53125 C 103.769531 49.839844 103.410156 56.570312 102.351562 62.96875 C 99.828125 60.960938 97.308594 58.878906 95.421875 56.230469 C 95.410156 54.609375 95.441406 52.988281 95.511719 51.359375 C 97.730469 51.800781 99.941406 52.328125 102.160156 52.808594 Z M 102.160156 52.808594 "/>
<path fill-rule="nonzero" fill="rgb(32.941177%, 32.941177%, 71.764708%)" fill-opacity="1" d="M 13.859375 54.789062 C 15.988281 54.410156 18.109375 54.011719 20.238281 53.710938 C 31.839844 52.859375 43.480469 54.589844 54.410156 58.511719 L 53.800781 58.710938 C 46.648438 61.011719 38.769531 60.660156 31.648438 58.398438 C 25.96875 56.238281 19.988281 54.628906 13.859375 54.789062 Z M 13.859375 54.789062 "/>
<path fill-rule="nonzero" fill="rgb(52.941179%, 53.333336%, 99.607843%)" fill-opacity="1" d="M 4.109375 56.691406 C 7.320312 55.859375 10.570312 55.210938 13.859375 54.789062 C 19.988281 54.628906 25.96875 56.238281 31.648438 58.398438 C 38.769531 60.660156 46.648438 61.011719 53.800781 58.710938 C 56.191406 59.101562 58.488281 59.890625 60.789062 60.628906 C 58.71875 65.101562 56.378906 69.460938 53.78125 73.648438 C 46.648438 72.421875 39.660156 70.558594 32.871094 68.050781 C 23.621094 64.328125 13.480469 63.160156 3.570312 63.699219 C 3.589844 61.351562 3.730469 59.011719 4.109375 56.691406 Z M 4.109375 56.691406 "/>
<path fill-rule="nonzero" fill="rgb(54.509807%, 54.901963%, 99.607843%)" fill-opacity="1" d="M 105.570312 60.441406 C 111.78125 57.570312 118.320312 55.359375 125.121094 54.460938 C 125.429688 57.640625 125.679688 60.839844 125.878906 64.03125 C 118.929688 63.460938 111.898438 63.339844 104.980469 64.25 C 105.230469 62.988281 105.421875 61.710938 105.570312 60.441406 Z M 105.570312 60.441406 "/>
<path fill-rule="nonzero" fill="rgb(24.705882%, 24.705882%, 67.058825%)" fill-opacity="1" d="M 54.410156 58.511719 C 57.148438 57.511719 59.878906 56.441406 62.769531 55.96875 C 62.140625 57.53125 61.5 59.089844 60.789062 60.628906 C 58.488281 59.890625 56.191406 59.101562 53.800781 58.710938 Z M 54.410156 58.511719 "/>
<path fill-rule="nonzero" fill="rgb(43.137255%, 70.588237%, 100%)" fill-opacity="1" d="M 62.210938 66.300781 C 63.578125 63.589844 64.421875 60.578125 66.339844 58.179688 C 66.359375 58.660156 66.378906 59.621094 66.398438 60.089844 C 65.210938 65.300781 61.589844 69.460938 59.960938 74.5 C 67.261719 71.050781 74.109375 66.660156 80.929688 62.339844 C 79.261719 65.96875 77.140625 69.371094 74.800781 72.609375 C 69.050781 79.429688 61.660156 84.558594 54.019531 89.039062 C 50.03125 91.339844 46.28125 94.089844 42.039062 95.929688 C 44.339844 92.648438 47.269531 89.878906 49.691406 86.699219 C 54.800781 80.53125 58.75 73.488281 62.210938 66.300781 Z M 62.210938 66.300781 "/>
<path fill-rule="nonzero" fill="rgb(76.078433%, 86.666667%, 97.647059%)" fill-opacity="1" d="M 93.828125 59.699219 C 97.058594 59.851562 99.640625 62.148438 102.21875 63.859375 C 101.558594 67.871094 99.519531 71.460938 97.378906 74.851562 C 96.179688 69.820312 92.109375 65.089844 93.828125 59.699219 Z M 93.828125 59.699219 "/>
<path fill-rule="nonzero" fill="rgb(34.901962%, 35.294119%, 99.215686%)" fill-opacity="1" d="M 3.570312 63.699219 C 13.480469 63.160156 23.621094 64.328125 32.871094 68.050781 C 27.058594 69.921875 21.25 72.308594 15.039062 72.28125 C 11.289062 72.421875 7.609375 71.550781 3.941406 70.949219 C 3.71875 68.539062 3.601562 66.121094 3.570312 63.699219 Z M 3.570312 63.699219 "/>
<path fill-rule="nonzero" fill="rgb(32.156864%, 32.156864%, 99.607843%)" fill-opacity="1" d="M 104.980469 64.25 C 111.898438 63.339844 118.929688 63.460938 125.878906 64.03125 C 125.820312 66.769531 125.601562 69.511719 125.289062 72.230469 C 118.070312 71.308594 111.53125 67.898438 104.410156 66.578125 C 104.550781 66 104.828125 64.828125 104.980469 64.25 Z M 104.980469 64.25 "/>
<path fill-rule="nonzero" fill="rgb(11.372549%, 11.372549%, 89.019608%)" fill-opacity="1" d="M 71.339844 95.910156 C 85.648438 91.238281 100.011719 81.78125 104.410156 66.578125 C 111.53125 67.898438 118.070312 71.308594 125.289062 72.230469 C 124.371094 80.109375 121.820312 87.828125 117.691406 94.628906 C 112.851562 94.339844 109.269531 98.121094 105.28125 100.238281 C 96.769531 104.96875 88.421875 109.988281 79.988281 114.871094 C 73.269531 118.46875 66.878906 122.808594 59.558594 125.148438 C 50.480469 124.648438 41.601562 121.710938 33.820312 117.050781 C 44.828125 112.671875 54.179688 105.148438 64.800781 100.019531 C 67.179688 98.96875 70.199219 98.621094 71.339844 95.910156 Z M 71.339844 95.910156 "/>
<path fill-rule="nonzero" fill="rgb(0.784314%, 0.784314%, 87.058824%)" fill-opacity="1" d="M 32.871094 68.050781 C 39.660156 70.558594 46.648438 72.421875 53.78125 73.648438 C 45.320312 86.800781 34.699219 98.679688 21.980469 107.851562 C 11.898438 98.160156 5.109375 84.949219 3.941406 70.949219 C 7.609375 71.550781 11.289062 72.421875 15.039062 72.28125 C 21.25 72.308594 27.058594 69.921875 32.871094 68.050781 Z M 32.871094 68.050781 "/>
<path fill-rule="nonzero" fill="rgb(48.627451%, 72.549021%, 97.647059%)" fill-opacity="1" d="M 79.121094 68.988281 C 81.960938 70.328125 82.949219 73.550781 84.21875 76.171875 C 84.058594 76.308594 83.75 76.601562 83.589844 76.75 L 82.71875 77.5 L 82.050781 78.058594 C 80.921875 77.339844 79.808594 76.609375 78.691406 75.878906 C 78.5 73.570312 78.609375 71.25 79.121094 68.988281 Z M 79.121094 68.988281 "/>
<path fill-rule="nonzero" fill="rgb(74.901962%, 85.882354%, 97.647059%)" fill-opacity="1" d="M 88.808594 70.648438 C 89.460938 69.898438 90.109375 69.160156 90.78125 68.429688 C 93.011719 70.609375 95.089844 72.921875 97.101562 75.289062 C 95.410156 78.089844 92.921875 80.269531 90.53125 82.449219 C 90.398438 78.460938 89.679688 74.53125 88.808594 70.648438 Z M 88.808594 70.648438 "/>
<path fill-rule="nonzero" fill="rgb(64.313728%, 79.607844%, 96.470588%)" fill-opacity="1" d="M 88.160156 71.421875 L 88.808594 70.648438 C 89.679688 74.53125 90.398438 78.460938 90.53125 82.449219 C 89.851562 83.039062 89.160156 83.621094 88.46875 84.179688 C 87.089844 81.550781 85.488281 79.03125 83.589844 76.75 C 83.75 76.601562 84.058594 76.308594 84.21875 76.171875 C 85.628906 74.671875 86.859375 73.019531 88.160156 71.421875 Z M 88.160156 71.421875 "/>
<path fill-rule="nonzero" fill="rgb(60.784316%, 78.039217%, 96.470588%)" fill-opacity="1" d="M 75.140625 73.578125 C 76.398438 76.050781 77.320312 78.671875 78 81.351562 C 79.398438 80.308594 80.71875 79.179688 82.050781 78.058594 L 82.71875 77.5 C 82.519531 80.859375 82.710938 84.238281 83.171875 87.570312 C 82.261719 88.070312 81.351562 88.570312 80.429688 89.039062 C 79.578125 86.488281 78.75 83.871094 77.148438 81.671875 C 76.179688 84.660156 76.058594 87.828125 76.539062 90.910156 C 75.578125 91.359375 74.589844 91.78125 73.609375 92.191406 C 73.320312 89.820312 72.910156 87.460938 71.898438 85.28125 C 69.890625 87.660156 69.269531 90.75 69.089844 93.78125 C 68.699219 93.898438 67.929688 94.140625 67.539062 94.261719 C 67.328125 92.199219 67.058594 90.160156 66.699219 88.128906 C 63.339844 89.640625 59.859375 90.878906 56.210938 91.5 C 56.890625 90.148438 56.988281 88.261719 58.378906 87.378906 C 62.878906 84.519531 67.628906 81.878906 71.191406 77.820312 C 72.320312 79.910156 72.609375 82.230469 72.378906 84.578125 C 73.578125 83.710938 74.78125 82.828125 75.96875 81.941406 C 74.71875 81.328125 73.488281 80.71875 72.25 80.101562 C 72.601562 77.691406 74.078125 75.710938 75.140625 73.578125 Z M 75.140625 73.578125 "/>
<path fill-rule="nonzero" fill="rgb(74.117649%, 85.490197%, 97.647059%)" fill-opacity="1" d="M 83.589844 76.75 C 85.488281 79.03125 87.089844 81.550781 88.46875 84.179688 C 86.828125 85.5 85 86.550781 83.171875 87.570312 C 82.710938 84.238281 82.519531 80.859375 82.71875 77.5 Z M 83.589844 76.75 "/>
<path fill-rule="nonzero" fill="rgb(74.901962%, 85.882354%, 97.647059%)" fill-opacity="1" d="M 77.148438 81.671875 C 78.75 83.871094 79.578125 86.488281 80.429688 89.039062 C 79.140625 89.679688 77.851562 90.300781 76.539062 90.910156 C 76.058594 87.828125 76.179688 84.660156 77.148438 81.671875 Z M 77.148438 81.671875 "/>
<path fill-rule="nonzero" fill="rgb(36.078432%, 64.705884%, 96.470588%)" fill-opacity="1" d="M 66.648438 83.308594 C 68.679688 82.808594 70.121094 83.328125 70.96875 84.878906 C 69.378906 85.980469 67.710938 87.921875 65.53125 87.121094 C 65.890625 85.839844 66.261719 84.570312 66.648438 83.308594 Z M 66.648438 83.308594 "/>
<path fill-rule="nonzero" fill="rgb(75.686276%, 86.274511%, 97.254902%)" fill-opacity="1" d="M 69.089844 93.78125 C 69.269531 90.75 69.890625 87.660156 71.898438 85.28125 C 72.910156 87.460938 73.320312 89.820312 73.609375 92.191406 C 72.121094 92.761719 70.609375 93.289062 69.089844 93.78125 Z M 69.089844 93.78125 "/>
<path fill-rule="nonzero" fill="rgb(33.725491%, 63.529414%, 96.470588%)" fill-opacity="1" d="M 61.359375 86.960938 C 62.898438 85.460938 64.851562 88.019531 62.660156 88.789062 C 61.089844 90.269531 59.371094 87.910156 61.359375 86.960938 Z M 61.359375 86.960938 "/>
<path fill-rule="nonzero" fill="rgb(77.64706%, 87.450981%, 97.254902%)" fill-opacity="1" d="M 56.210938 91.5 C 59.859375 90.878906 63.339844 89.640625 66.699219 88.128906 C 67.058594 90.160156 67.328125 92.199219 67.539062 94.261719 C 59.339844 96.488281 51.039062 98.398438 42.621094 99.550781 C 42.25 99.359375 41.5 98.980469 41.128906 98.78125 C 43.949219 97.359375 46.160156 94.371094 49.550781 94.441406 C 50.601562 93.449219 51.621094 92.429688 52.628906 91.398438 C 53.820312 91.46875 55.011719 91.589844 56.210938 91.5 Z M 56.210938 91.5 "/>
<path fill-rule="nonzero" fill="rgb(17.254902%, 17.254902%, 89.803922%)" fill-opacity="1" d="M 105.28125 100.238281 C 109.269531 98.121094 112.851562 94.339844 117.691406 94.628906 C 109.160156 108.800781 95.199219 120.101562 78.898438 123.800781 C 72.578125 125.410156 66.019531 125.300781 59.558594 125.148438 C 66.878906 122.808594 73.269531 118.46875 79.988281 114.871094 C 88.421875 109.988281 96.769531 104.96875 105.28125 100.238281 Z M 105.28125 100.238281 "/>
<path fill-rule="nonzero" fill="rgb(6.666667%, 6.666667%, 88.627452%)" fill-opacity="1" d="M 40.351562 102.488281 C 50.851562 101.269531 61.320312 99.371094 71.339844 95.910156 C 70.199219 98.621094 67.179688 98.96875 64.800781 100.019531 C 54.179688 105.148438 44.828125 112.671875 33.820312 117.050781 C 31.449219 115.628906 29.230469 113.980469 27 112.351562 C 31.519531 109.160156 35.808594 105.628906 40.351562 102.488281 Z M 40.351562 102.488281 "/>
</svg>
